<svg id="exAI9RN5qWh1" xmlns="http://www.w3.org/2000/svg" xmlns:xlink="http://www.w3.org/1999/xlink" viewBox="0 0 470 443" shape-rendering="geometricPrecision" text-rendering="geometricPrecision"><defs><linearGradient id="exAI9RN5qWh30-fill" x1="153.789" y1="288.355" x2="69.5318" y2="338.448" spreadMethod="pad" gradientUnits="userSpaceOnUse" gradientTransform="translate(0 0)"><stop id="exAI9RN5qWh30-fill-0" offset="0%" stop-color="#3fffac"/><stop id="exAI9RN5qWh30-fill-1" offset="100%" stop-color="rgba(115,202,255,0)"/></linearGradient><linearGradient id="exAI9RN5qWh58-fill" x1="153.789" y1="288.355" x2="69.5318" y2="338.448" spreadMethod="pad" gradientUnits="userSpaceOnUse" gradientTransform="translate(0 0)"><stop id="exAI9RN5qWh58-fill-0" offset="0%" stop-color="#3fffac"/><stop id="exAI9RN5qWh58-fill-1" offset="100%" stop-color="rgba(115,202,255,0)"/></linearGradient><linearGradient id="exAI9RN5qWh63-fill" x1="153.789" y1="288.355" x2="69.5318" y2="338.448" spreadMethod="pad" gradientUnits="userSpaceOnUse" gradientTransform="translate(0 0)"><stop id="exAI9RN5qWh63-fill-0" offset="0%" stop-color="#3fffac"/><stop id="exAI9RN5qWh63-fill-1" offset="100%" stop-color="rgba(115,202,255,0)"/></linearGradient></defs><g id="exAI9RN5qWh2" transform="translate(0 0.000001)"><g id="exAI9RN5qWh3" transform="matrix(.203983 0 0 0.203983 14.408386 16.534499)" opacity="0"><path d="M14.8389,0.690079c1.7422.490201,3.4234,1.175841,5.0116,2.043841c3.1357,1.45589,7.6294,3.55573,13.117,6.35551l.3779.18199.07.41997c.798,4.47961,1.7079,9.63121,2.6878,15.21681l.098.504-.3639.378L21.8383,40.265l-.5599.588-.728-.364L2.88378,31.3057l-.47596-.2379-.07-.504C1.46989,24.9642,0.685947,19.7846,0,15.277v-.434l.293977-.28C4.59165,10.1953,8.18937,6.66762,10.7232,4.2738c1.2243-1.35415,2.606-2.55724,4.1157-3.583721C13.855,2.2168,12.6995,3.62586,11.3951,4.88976C9.0713,7.47956,5.65557,11.1753,1.42789,15.6829c.07-.224.13999-.4619.22398-.7139.79794,4.4796,1.70787,9.6172,2.7018,15.2168l-.54596-.7419L21.5863,38.4872l-1.2739.224l13.999-14.3909c-.084.3079-.182.6159-.266.8819-.8679-5.5996-1.6519-10.7792-2.3378-15.27283l.4479.60193c-5.4035-2.79976-9.7992-5.24957-12.795-6.99944-1.6157-.76259-3.1338-1.7167-4.5216-2.841781v0Z" fill="#8786eb"/><path d="M3.34564,30.3958c-.43396-.42,4.75964-6.4815,11.59116-13.523l1.6238-1.6798c-.098.3219-.196.6299-.2799.9379-1.3999-8.62336-1.9879-15.328842-1.3999-15.398837.5879-.069995,2.0858,6.467507,3.5697,15.076837l.098.532-.378.3919-1.6239,1.6799C9.72915,25.4402,3.77961,30.8158,3.34564,30.3958Z" fill="#8786eb"/><path d="M17.3447,15.9489c.28-.532,4.4796,1.0639,9.3793,3.5697s8.6513,4.9837,8.3993,5.5156c-.252.532-4.4796-1.0639-9.3793-3.5697s-8.6793-4.9696-8.3993-5.5156Z" fill="#8786eb"/></g><g id="exAI9RN5qWh7" transform="matrix(.254159 0 0 0.254159 77.96235 314.662495)" opacity="0"><path d="M102.738,401.787c1.695.602,3.312,1.406,4.815,2.394c3.01,1.666,7.294,4.2,12.599,7.224l.35.21v.434c.434,4.493.952,9.659,1.512,15.272v.504l-.392.35-14.881,13.285-.602.546-.685-.42-16.7992-10.387-.448-.28v-.504c-.4339-5.599-.8259-10.807-1.1619-15.315v-.434l.322-.28c4.6616-3.989,8.4833-7.195,11.1991-9.393c1.3155-1.235,2.772-2.311,4.34-3.206-1.081,1.446-2.326,2.762-3.71,3.92-2.5058,2.394-6.1595,5.796-10.6952,9.939.098-.224.182-.448.28-.7.448,4.508.9659,9.66,1.5259,15.287l-.49-.784L106.755,439.71l-1.287.112l14.852-13.173c-.112.294-.238.588-.336.84-.42-5.599-.812-10.793-1.162-15.3l.406.643c-5.137-3.247-9.295-5.935-12.151-7.853-1.563-.896-3.019-1.966-4.339-3.192Z" fill="#8786eb"/><path d="M89.1171,430.317c-.392-.448,5.1936-6.061,12.5009-12.529l1.75-1.526c-.126.308-.252.602-.364.91-.686-8.651-.812-15.399-.266-15.399s1.596,6.552,2.422,15.189v.546l-.42.364-1.722,1.54c-7.2514,6.481-13.4949,11.367-13.9009,10.905Z" fill="#8786eb"/><path d="M104.082,417.074c.308-.518,4.354,1.4,9.015,4.2c4.662,2.8,8.204,5.599,7.882,6.103s-4.354-1.4-9.016-4.199c-4.661-2.8-8.203-5.586-7.881-6.104Z" fill="#8786eb"/></g><g id="exAI9RN5qWh11" transform="matrix(.313908 0 0 0.313908 301.712726 161.336055)" opacity="0"><path d="M409.511,237.482c1.239-2.417,2.672-4.729,4.283-6.916c2.87-4.339,7.098-10.555,12.305-18.198l.238-.336h.434l23.253-.728h.518l.322.406l18.646,23.882.49.644-.462.658-17.317,24.526-.307.434h-.504l-23.295.378h-.434l-.252-.322c-5.599-7.419-10.177-13.467-13.285-17.709-1.715-2.122-3.264-4.373-4.633-6.733c1.957,1.907,3.759,3.966,5.389,6.159c3.332,4.06,8.078,9.968,13.859,17.247l-.686-.322l23.295-.728-.812.434c5.305-7.615,11.115-15.931,17.19-24.624c0,.434,0,.854,0,1.302l-18.45-23.966.84.392-23.281.378.672-.364c-5.375,7.475-9.799,13.551-12.907,17.736-1.533,2.255-3.241,4.385-5.109,6.37Z" fill="#8786eb"/><path d="M451.382,260.86c-.476.364-8.218-8.805-17.303-20.48l-2.156-2.8.882.42c-13.159.238-23.28,0-23.294-.532s10.093-1.26,23.238-1.638h.546l.336.434l2.17,2.8c9.085,11.647,16.057,21.418,15.581,21.796Z" fill="#8786eb"/><path d="M432.777,236.936c-.49-.35,2.981-6.132,7.741-12.921c4.76-6.79,9.043-12.011,9.533-11.661s-2.968,6.131-7.741,12.921c-4.774,6.789-9.043,11.997-9.533,11.661Z" fill="#8786eb"/></g><g id="exAI9RN5qWh15" transform="matrix(.643956 0 0 0.643956 157.245054 59.87948)" opacity="0"><path d="M429.221,159.284c-.098-.322,5.431-2.436,14.279-5.502l.392-.14.35.252l9.729,6.748.42.294v.532c.098,4.745.21,9.953.308,15.399v.812l-.77.237-14.545,4.648-.504.154-.406-.308c-3.5-2.59-6.719-4.955-9.519-6.999l-.364-.266v-.406c0-9.464.266-15.399.602-15.399s.728,5.921,1.064,15.399l-.35-.672l9.799,6.761-.91-.14l14.503-4.773-.756,1.05c0-5.446-.112-10.654-.154-15.399l.42.812-9.505-7l.742.112c-9.002,2.576-14.713,4.116-14.825,3.794Z" fill="#8786eb"/><path d="M439.077,181.584c-.602,0-1.19-6.075-1.302-13.607c0-.602,0-1.204,0-1.778l.448.854c-5.39-3.947-9.31-7.321-8.988-7.769s4.774,2.17,10.247,6.005l.448.322v.546c0,.574,0,1.176,0,1.792.154,7.518-.252,13.621-.853,13.635Z" fill="#8786eb"/><path d="M438.839,166.171c-.182-.574,2.925-2.085,6.999-3.387s7.42-1.876,7.616-1.302-2.926,2.086-7,3.387c-4.074,1.302-7.419,1.876-7.615,1.302Z" fill="#8786eb"/></g><g id="exAI9RN5qWh19" transform="matrix(.306056 0 0 0.306056 167.715213 263.143563)" opacity="0"><g><path d="M190.819,357.663c1.017-.816,2.098-1.546,3.234-2.184c2.142-1.4,5.334-3.332,9.449-5.852c8.218-5.025,20.103-12.193,34.704-20.998l.35-.21.406.168l39.673,16.617.476.196.112.504l13.173,54.427.196.784-.7.406-47.807,28.208-.448.252-.476-.196L203.6,412.818l-.406-.168-.084-.405c-3.933-16.799-7.083-30.392-9.211-39.855-1.064-4.732-1.876-8.4-2.394-10.934-.34-1.265-.569-2.558-.686-3.863.489,1.217.877,2.471,1.162,3.751.672,2.478,1.624,6.118,2.8,10.822c2.408,9.407,5.81,22.986,9.925,39.687l-.49-.574l39.715,16.63h-.91l47.723-28.319-.504,1.189c-4.578-19.08-8.932-37.517-12.991-54.315l.588.7-39.533-16.953h.756c-14.713,8.581-26.724,15.539-35.082,20.312-4.199,2.394-7.447,4.2-9.687,5.46-1.103.665-2.265,1.227-3.472,1.68Z" fill="#8786eb"/><path d="M243.511,428.973c-.294.07-1.862-5.263-4.199-13.915-2.338-8.651-5.306-20.676-8.512-33.961-.518-2.17-1.036-4.298-1.526-6.328l.63.742c-11.199-4.773-20.998-9.099-27.998-12.291-6.999-3.191-11.199-5.235-11.129-5.501s4.522,1.4,11.689,4.199c7.168,2.8,17.247,6.944,28.446,11.606l.504.21.126.531c.49,2.016,1.008,4.2,1.526,6.314c3.206,13.285,5.992,25.352,7.909,34.115c1.918,8.764,2.884,14.209,2.534,14.279Z" fill="#8786eb"/></g><path d="M230.436,374.461c-.308-.518,10.15-7.265,23.337-15.076c13.187-7.812,24.162-13.705,24.47-13.187s-10.15,7.265-23.351,15.076c-13.201,7.812-24.148,13.761-24.456,13.187Z" fill="#8786eb"/></g><g opacity="0.61"><rect width="144.189" height="145.589" rx="0" ry="0" transform="translate(11.8008 253.777)" fill="none"/></g><g id="exAI9RN5qWh26" transform="matrix(.279374 0 0 0.279374 70.621802 230.493308)" opacity="0"><path d="M135.734,286.072l14.097,55.03-48.619,29.132-14.1104-55.03l48.6324-29.132Z" fill="#4ec5ff"/><path d="M101.212,370.234L60.4055,353.631l-14.0969-55.03l40.7929,16.603l14.1105,55.03Z" fill="#1b5aa6"/><path d="M87.1015,315.204L46.3086,298.601l48.6323-29.132l40.7931,16.603-48.6325,29.132Z" fill="#349ddc"/><path d="M135.734,286.072L94.9409,269.469L46.3086,298.601l14.0969,55.03L101.24,370.234l48.591-29.132-14.097-55.03Z" fill="url(#exAI9RN5qWh30-fill)"/></g><g id="exAI9RN5qWh31" transform="matrix(.629615 0 0 0.629615 82.132871 91.881892)"><path d="M259.415,214.734l14.096,55.029-48.632,29.118-14.097-55.03l48.633-29.117Z" fill="#4ec5ff"/><path d="M224.879,298.881l-40.793-16.603-14.097-55.029l40.793,16.602l14.097,55.03Z" transform="translate(0-1.149085)" fill="#1b5aa6"/><path d="M210.782,243.851l-40.793-16.602l48.633-29.118l40.792,16.603-48.632,29.117Z" fill="#349ddc"/></g><path id="exAI9RN5qWh35" d="M216.914,224.043c0,.424-.126.838-.361,1.19-.236.352-.57.627-.962.789-.391.162-.822.204-1.237.122-.416-.083-.797-.287-1.097-.587-.299-.299-.503-.681-.586-1.096-.083-.416-.04-.846.122-1.238.162-.391.437-.726.789-.961s.766-.361,1.19-.361c.567.004,1.109.231,1.51.632.401.4.628.943.632,1.51Z" transform="translate(0 0.100151)" opacity="0" fill="#8786eb"/><g id="exAI9RN5qWh36" transform="matrix(.306056 0 0 0.306056-22.667344 52.097623)" opacity="0"><g><path d="M190.819,357.663c1.017-.816,2.098-1.546,3.234-2.184c2.142-1.4,5.334-3.332,9.449-5.852c8.218-5.025,20.103-12.193,34.704-20.998l.35-.21.406.168l39.673,16.617.476.196.112.504l13.173,54.427.196.784-.7.406-47.807,28.208-.448.252-.476-.196L203.6,412.818l-.406-.168-.084-.405c-3.933-16.799-7.083-30.392-9.211-39.855-1.064-4.732-1.876-8.4-2.394-10.934-.34-1.265-.569-2.558-.686-3.863.489,1.217.877,2.471,1.162,3.751.672,2.478,1.624,6.118,2.8,10.822c2.408,9.407,5.81,22.986,9.925,39.687l-.49-.574l39.715,16.63h-.91l47.723-28.319-.504,1.189c-4.578-19.08-8.932-37.517-12.991-54.315l.588.7-39.533-16.953h.756c-14.713,8.581-26.724,15.539-35.082,20.312-4.199,2.394-7.447,4.2-9.687,5.46-1.103.665-2.265,1.227-3.472,1.68Z" fill="#8786eb"/><path d="M243.511,428.973c-.294.07-1.862-5.263-4.199-13.915-2.338-8.651-5.306-20.676-8.512-33.961-.518-2.17-1.036-4.298-1.526-6.328l.63.742c-11.199-4.773-20.998-9.099-27.998-12.291-6.999-3.191-11.199-5.235-11.129-5.501s4.522,1.4,11.689,4.199c7.168,2.8,17.247,6.944,28.446,11.606l.504.21.126.531c.49,2.016,1.008,4.2,1.526,6.314c3.206,13.285,5.992,25.352,7.909,34.115c1.918,8.764,2.884,14.209,2.534,14.279Z" fill="#8786eb"/></g><path d="M230.436,374.461c-.308-.518,10.15-7.265,23.337-15.076c13.187-7.812,24.162-13.705,24.47-13.187s-10.15,7.265-23.351,15.076c-13.201,7.812-24.148,13.761-24.456,13.187Z" fill="#8786eb"/></g><g id="exAI9RN5qWh41" transform="matrix(.306056 0 0 0.306056 255.850533 38.994617)" opacity="0"><g><path d="M190.819,357.663c1.017-.816,2.098-1.546,3.234-2.184c2.142-1.4,5.334-3.332,9.449-5.852c8.218-5.025,20.103-12.193,34.704-20.998l.35-.21.406.168l39.673,16.617.476.196.112.504l13.173,54.427.196.784-.7.406-47.807,28.208-.448.252-.476-.196L203.6,412.818l-.406-.168-.084-.405c-3.933-16.799-7.083-30.392-9.211-39.855-1.064-4.732-1.876-8.4-2.394-10.934-.34-1.265-.569-2.558-.686-3.863.489,1.217.877,2.471,1.162,3.751.672,2.478,1.624,6.118,2.8,10.822c2.408,9.407,5.81,22.986,9.925,39.687l-.49-.574l39.715,16.63h-.91l47.723-28.319-.504,1.189c-4.578-19.08-8.932-37.517-12.991-54.315l.588.7-39.533-16.953h.756c-14.713,8.581-26.724,15.539-35.082,20.312-4.199,2.394-7.447,4.2-9.687,5.46-1.103.665-2.265,1.227-3.472,1.68Z" fill="#8786eb"/><path d="M243.511,428.973c-.294.07-1.862-5.263-4.199-13.915-2.338-8.651-5.306-20.676-8.512-33.961-.518-2.17-1.036-4.298-1.526-6.328l.63.742c-11.199-4.773-20.998-9.099-27.998-12.291-6.999-3.191-11.199-5.235-11.129-5.501s4.522,1.4,11.689,4.199c7.168,2.8,17.247,6.944,28.446,11.606l.504.21.126.531c.49,2.016,1.008,4.2,1.526,6.314c3.206,13.285,5.992,25.352,7.909,34.115c1.918,8.764,2.884,14.209,2.534,14.279Z" fill="#8786eb"/></g><path d="M230.436,374.461c-.308-.518,10.15-7.265,23.337-15.076c13.187-7.812,24.162-13.705,24.47-13.187s-10.15,7.265-23.351,15.076c-13.201,7.812-24.148,13.761-24.456,13.187Z" fill="#8786eb"/></g><g transform="translate(-160.080457-32.55433)"><path d="M243.161,256.391l71.807001,29.921263" transform="translate(161.497459 31.44633)" fill="#3f5787" stroke="#8786eb" stroke-width="2" stroke-linecap="round" stroke-dashoffset="77.79" stroke-dasharray="77.79"/><path id="exAI9RN5qWh48" d="M244.282,257.22c0,.425-.126.839-.362,1.192-.236.352-.572.627-.964.789-.392.161-.823.203-1.239.119s-.798-.289-1.097-.59-.501-.684-.582-1.1c-.082-.417-.037-.848.127-1.239s.441-.725.795-.958c.354-.234.77-.357,1.194-.354.566.003,1.107.231,1.505.632.399.401.623.944.623,1.509Z" transform="translate(162.364447 30.289987)" opacity="0" fill="#8786eb"/></g><g transform="matrix(-.590194-.807261 0.807261-.590194 221.235173 708.171097)"><path d="M233.165777,249.825104l81.802224,36.487159" transform="translate(161.497459 30.885453)" fill="#3f5787" stroke="#8786eb" stroke-width="2" stroke-linecap="round" stroke-dashoffset="89.57" stroke-dasharray="89.57"/></g><g transform="matrix(-.606726 0.794911-.794911-.606726 671.366919 118.058719)"><path d="M243.161,256.391l59.819997,24.294139" transform="translate(161.497459 31.44633)" fill="#3f5787" stroke="#8786eb" stroke-width="2" stroke-linecap="round" stroke-dashoffset="64.56" stroke-dasharray="64.56"/><path id="exAI9RN5qWh53" d="M244.282,257.22c0,.425-.126.839-.362,1.192-.236.352-.572.627-.964.789-.392.161-.823.203-1.239.119s-.798-.289-1.097-.59-.501-.684-.582-1.1c-.082-.417-.037-.848.127-1.239s.441-.725.795-.958c.354-.234.77-.357,1.194-.354.566.003,1.107.231,1.505.632.399.401.623.944.623,1.509Z" transform="translate(162.364447 30.289987)" opacity="0" fill="#8786eb"/></g><g id="exAI9RN5qWh54" transform="matrix(.279374 0 0 0.279374 335.431487 221.260795)" opacity="0"><path d="M135.734,286.072l14.097,55.03-48.619,29.132-14.1104-55.03l48.6324-29.132Z" fill="#4ec5ff"/><path d="M101.212,370.234L60.4055,353.631l-14.0969-55.03l40.7929,16.603l14.1105,55.03Z" fill="#1b5aa6"/><path d="M87.1015,315.204L46.3086,298.601l48.6323-29.132l40.7931,16.603-48.6325,29.132Z" fill="#349ddc"/><path d="M135.734,286.072L94.9409,269.469L46.3086,298.601l14.0969,55.03L101.24,370.234l48.591-29.132-14.097-55.03Z" transform="translate(.091328 0)" fill="url(#exAI9RN5qWh58-fill)"/></g><g id="exAI9RN5qWh59" transform="matrix(.279374 0 0 0.279374 151.226507 7.049654)" opacity="0"><path d="M135.734,286.072l14.097,55.03-48.619,29.132-14.1104-55.03l48.6324-29.132Z" fill="#4ec5ff"/><path d="M101.212,370.234L60.4055,353.631l-14.0969-55.03l40.7929,16.603l14.1105,55.03Z" fill="#1b5aa6"/><path d="M87.1015,315.204L46.3086,298.601l48.6323-29.132l40.7931,16.603-48.6325,29.132Z" fill="#349ddc"/><path d="M135.734,286.072L94.9409,269.469L46.3086,298.601l14.0969,55.03L101.24,370.234l48.591-29.132-14.097-55.03Z" fill="url(#exAI9RN5qWh63-fill)"/></g><g transform="matrix(-.606726 0.794911-.794911-.606726 628.366919-31.941281)"><path d="M243.161,256.391l66.696302,28.221149" transform="translate(160.57295 32.151973)" fill="#3f5787" stroke="#8786eb" stroke-width="2" stroke-linecap="round" stroke-dashoffset="72.42" stroke-dasharray="72.42"/><path id="exAI9RN5qWh66" d="M244.282,257.22c0,.425-.126.839-.362,1.192-.236.352-.572.627-.964.789-.392.161-.823.203-1.239.119s-.798-.289-1.097-.59-.501-.684-.582-1.1c-.082-.417-.037-.848.127-1.239s.441-.725.795-.958c.354-.234.77-.357,1.194-.354.566.003,1.107.231,1.505.632.399.401.623.944.623,1.509Z" transform="translate(162.364447 30.289987)" opacity="0" fill="#8786eb"/></g><g transform="matrix(-.575763-.817617 0.817617-.575763 84.052173 774.722108)"><path d="M232.088358,250.611404l77.768944,34.000745" transform="translate(160.696993 31.975825)" fill="#3f5787" stroke="#8786eb" stroke-width="2" stroke-linecap="round" stroke-dashoffset="84.88" stroke-dasharray="84.88"/><path id="exAI9RN5qWh69" d="M244.282,257.22c0,.425-.126.839-.362,1.192-.236.352-.572.627-.964.789-.392.161-.823.203-1.239.119s-.798-.289-1.097-.59-.501-.684-.582-1.1c-.082-.417-.037-.848.127-1.239s.441-.725.795-.958c.354-.234.77-.357,1.194-.354.566.003,1.107.231,1.505.632.399.401.623.944.623,1.509Z" transform="translate(150.304532 25.203141)" opacity="0" fill="#8786eb"/></g><g transform="translate(-285.080457 41.44567)"><path d="M243.161,256.391l71.807001,29.921263" transform="translate(161.497459 31.44633)" fill="#3f5787" stroke="#8786eb" stroke-width="2" stroke-linecap="round" stroke-dashoffset="77.79" stroke-dasharray="77.79"/><path id="exAI9RN5qWh72" d="M244.282,257.22c0,.425-.126.839-.362,1.192-.236.352-.572.627-.964.789-.392.161-.823.203-1.239.119s-.798-.289-1.097-.59-.501-.684-.582-1.1c-.082-.417-.037-.848.127-1.239s.441-.725.795-.958c.354-.234.77-.357,1.194-.354.566.003,1.107.231,1.505.632.399.401.623.944.623,1.509Z" transform="translate(162.364447 30.289987)" opacity="0" fill="#8786eb"/></g><g transform="matrix(-.612553 0.790429-.790429-.612553 817.596086 186.783306)"><path d="M243.161,256.391l71.807001,29.921263" transform="matrix(.725163 0 0 0.704696 238.194709 111.577552)" fill="#3f5787" stroke="#8786eb" stroke-width="2" stroke-linecap="round" stroke-dashoffset="77.79" stroke-dasharray="77.79"/><path id="exAI9RN5qWh75" d="M244.282,257.22c0,.425-.126.839-.362,1.192-.236.352-.572.627-.964.789-.392.161-.823.203-1.239.119s-.798-.289-1.097-.59-.501-.684-.582-1.1c-.082-.417-.037-.848.127-1.239s.441-.725.795-.958c.354-.234.77-.357,1.194-.354.566.003,1.107.231,1.505.632.399.401.623.944.623,1.509Z" transform="translate(162.364447 30.289987)" opacity="0" fill="#8786eb"/></g><g transform="matrix(-.508517-.669323 0.691299-.525212 367.633968 681.964591)"><path d="M243.161,256.391l71.807001,29.921263" transform="matrix(.959552 0.004552-.004623 0.974657 174.039532 37.052992)" fill="#3f5787" stroke="#8786eb" stroke-width="2" stroke-linecap="round" stroke-dashoffset="77.79" stroke-dasharray="77.79"/><path id="exAI9RN5qWh78" d="M244.282,257.22c0,.425-.126.839-.362,1.192-.236.352-.572.627-.964.789-.392.161-.823.203-1.239.119s-.798-.289-1.097-.59-.501-.684-.582-1.1c-.082-.417-.037-.848.127-1.239s.441-.725.795-.958c.354-.234.77-.357,1.194-.354.566.003,1.107.231,1.505.632.399.401.623.944.623,1.509Z" transform="translate(162.364447 30.289987)" opacity="0" fill="#8786eb"/></g></g></svg>