<svg width="244" height="235" viewBox="0 0 244 235" fill="none" xmlns="http://www.w3.org/2000/svg">
<path d="M157.351 20.8467L170.421 3H91.9998V20.8467H157.351Z" stroke="white" stroke-width="5"/>
<path d="M157.351 214.611L170.421 232.458H91.9998V214.611H157.351Z" stroke="white" stroke-width="5"/>
<path d="M173.035 115.179L144.281 64.1886L157.351 51.4409L193.947 115.179V122.828L154.737 186.566L144.281 168.719L173.035 115.179Z" stroke="white" stroke-width="5"/>
<path d="M141.117 115.709L125.983 88.7703L132.862 82.0356L152.123 115.709V119.749L131.486 153.423L125.983 143.994L141.117 115.709Z" stroke="white" stroke-width="5"/>
<path d="M220.088 117.729L167.807 25.9461L180.877 10.6489L241 107.531V127.927L178.263 227.359L167.807 206.963L220.088 117.729Z" stroke="white" stroke-width="5"/>
<path d="M86.6493 20.8467L73.5791 3H152V20.8467H86.6493Z" stroke="white" stroke-width="5"/>
<path d="M86.6493 214.611L73.5791 232.458H152V214.611H86.6493Z" stroke="white" stroke-width="5"/>
<path d="M70.965 115.179L99.7194 64.1886L86.6492 51.4409L50.0527 115.179V122.828L89.2633 186.566L99.7194 168.719L70.965 115.179Z" stroke="white" stroke-width="5"/>
<path d="M102.883 115.709L118.017 88.7703L111.138 82.0356L91.877 115.709V119.749L112.514 153.423L118.017 143.994L102.883 115.709Z" stroke="white" stroke-width="5"/>
<path d="M23.9123 117.729L76.193 25.9461L63.1228 10.6489L3 107.531V127.927L65.7368 227.359L76.193 206.963L23.9123 117.729Z" stroke="white" stroke-width="5"/>
</svg>
