<svg width="18" height="18" viewBox="0 0 18 18" fill="none" xmlns="http://www.w3.org/2000/svg">
<path d="M9 0.0366211C4.18359 0.0366211 0.28125 3.93896 0.28125 8.75537C0.28125 13.5718 4.18359 17.4741 9 17.4741C13.8164 17.4741 17.7188 13.5718 17.7188 8.75537C17.7188 3.93896 13.8164 0.0366211 9 0.0366211ZM13.2539 6.01318L11.8477 12.7632C11.7422 13.2554 11.4609 13.3608 11.0391 13.1499L8.85938 11.5327L7.80469 12.5522C7.69922 12.6577 7.59375 12.7632 7.38281 12.7632L7.52344 10.5483L11.5664 6.89209C11.7422 6.75146 11.5312 6.646 11.2852 6.78662L6.29297 9.95068L4.14844 9.28271C3.69141 9.14209 3.69141 8.79053 4.25391 8.57959L12.6562 5.34521C13.043 5.20459 13.3945 5.45068 13.2539 6.01318Z" fill="white"/>
</svg>
