<svg width="18" height="19" viewBox="0 0 18 19" fill="none" xmlns="http://www.w3.org/2000/svg">
<path d="M17.1288 18.0376L17.9729 14.3797C18.0784 13.9928 17.8674 13.5708 17.4805 13.3949L13.5412 11.7067C13.1895 11.566 12.8026 11.6715 12.5564 11.9529L10.7978 14.0984C8.12475 12.8322 5.87374 10.6163 4.57237 7.8729L6.71787 6.1143C6.99924 5.86809 7.10476 5.4812 6.96407 5.12948L5.27581 1.1902C5.09995 0.803311 4.67789 0.627451 4.29099 0.697795L0.633099 1.54192C0.246204 1.64744 0 1.96399 0 2.38605C0 11.3901 7.28062 18.7059 16.3198 18.7059C16.7067 18.7059 17.0233 18.4245 17.1288 18.0376Z" fill="#4BA8E7"/>
</svg>
