<svg width="15" height="27" viewBox="0 0 15 27" fill="none" xmlns="http://www.w3.org/2000/svg">
<path d="M13.9453 26.5498L14.3555 26.1396C14.6484 25.8467 14.6484 25.4365 14.3555 25.1436L2.92969 13.6592L14.3555 2.2334C14.6484 1.94043 14.6484 1.53027 14.3555 1.2373L13.9453 0.827148C13.6523 0.53418 13.2422 0.53418 12.9492 0.827148L0.585938 13.1904C0.292969 13.4834 0.292969 13.8936 0.585938 14.1865L12.9492 26.5498C13.2422 26.8428 13.6523 26.8428 13.9453 26.5498Z" fill="url(#paint0_linear_60_353)"/>
<path d="M14.3555 25.1436L13.6466 25.8489L13.6484 25.8507L14.3555 25.1436ZM2.92969 13.6592L2.22258 12.9521L1.51728 13.6574L2.22077 14.3645L2.92969 13.6592ZM14.6524 27.2569L15.0626 26.8468L13.6484 25.4325L13.2382 25.8427L14.6524 27.2569ZM15.0626 26.8468C15.3784 26.5309 15.5752 26.1072 15.5752 25.6416C15.5752 25.176 15.3784 24.7523 15.0626 24.4364L13.6484 25.8507C13.6255 25.8278 13.5752 25.7557 13.5752 25.6416C13.5752 25.5275 13.6255 25.4554 13.6484 25.4325L15.0626 26.8468ZM15.0644 24.4383L3.6386 12.9539L2.22077 14.3645L13.6466 25.8489L15.0644 24.4383ZM3.63679 14.3663L15.0626 2.94051L13.6484 1.52629L2.22258 12.9521L3.63679 14.3663ZM15.0626 2.94051C15.3784 2.62464 15.5752 2.20097 15.5752 1.73535C15.5752 1.26973 15.3784 0.84606 15.0626 0.530198L13.6484 1.94441C13.6255 1.92152 13.5752 1.84941 13.5752 1.73535C13.5752 1.62129 13.6255 1.54919 13.6484 1.52629L15.0626 2.94051ZM15.0626 0.530198L14.6524 0.120042L13.2382 1.53426L13.6484 1.94441L15.0626 0.530198ZM14.6524 0.120042C14.3366 -0.195821 13.9129 -0.392578 13.4473 -0.392578C12.9816 -0.392578 12.558 -0.195821 12.2421 0.120042L13.6563 1.53426C13.6334 1.55715 13.5613 1.60742 13.4473 1.60742C13.3332 1.60742 13.2611 1.55715 13.2382 1.53426L14.6524 0.120042ZM12.2421 0.120042L-0.121169 12.4833L1.29304 13.8975L13.6563 1.53426L12.2421 0.120042ZM-0.121169 12.4833C-0.437031 12.7992 -0.633789 13.2229 -0.633789 13.6885C-0.633789 14.1541 -0.437031 14.5778 -0.121169 14.8936L1.29304 13.4794C1.31594 13.5023 1.36621 13.5744 1.36621 13.6885C1.36621 13.8025 1.31594 13.8746 1.29304 13.8975L-0.121169 12.4833ZM-0.121169 14.8936L12.2421 27.2569L13.6563 25.8427L1.29304 13.4794L-0.121169 14.8936ZM12.2421 27.2569C12.558 27.5728 12.9816 27.7695 13.4473 27.7695C13.9129 27.7695 14.3366 27.5728 14.6524 27.2569L13.2382 25.8427C13.2611 25.8198 13.3332 25.7695 13.4473 25.7695C13.5613 25.7695 13.6334 25.8198 13.6563 25.8427L12.2421 27.2569Z" fill="url(#paint1_linear_60_353)"/>
<defs>
<linearGradient id="paint0_linear_60_353" x1="5.83729e-08" y1="28.1689" x2="14.9544" y2="27.3433" gradientUnits="userSpaceOnUse">
<stop stop-color="#D8404C"/>
<stop offset="1" stop-color="#45ABF3"/>
</linearGradient>
<linearGradient id="paint1_linear_60_353" x1="5.83729e-08" y1="28.1689" x2="14.9544" y2="27.3433" gradientUnits="userSpaceOnUse">
<stop stop-color="#D8404C"/>
<stop offset="1" stop-color="#45ABF3"/>
</linearGradient>
</defs>
</svg>
