<svg width="12" height="12" viewBox="0 0 12 12" fill="none" xmlns="http://www.w3.org/2000/svg">
<path d="M1.15029 1.08342L1.08577 1.94307C1.07488 2.16377 1.24273 2.34904 1.44245 2.33677L8.28423 2.67425L0.363891 9.84996C0.224937 9.97585 0.211874 10.2407 0.337763 10.3796L0.925249 11.0281C1.07212 11.1902 1.31598 11.1801 1.45493 11.0542L9.37528 3.87851L9.05878 10.7434C9.02691 10.941 9.19477 11.1263 9.41547 11.1371L10.2773 11.1575C10.4748 11.1894 10.6601 11.0216 10.671 10.8008L11.126 1.57548C11.1369 1.35478 10.9901 1.19267 10.7694 1.18178L1.54399 0.726729C1.32329 0.715843 1.13802 0.883696 1.15029 1.08342Z" fill="white"/>
</svg>
