<svg width="19" height="19" viewBox="0 0 19 19" fill="none" xmlns="http://www.w3.org/2000/svg">
<path d="M15.6682 3.3344C14.0209 1.6469 11.7709 0.682617 9.36021 0.682617C4.45843 0.682617 0.440569 4.70047 0.440569 9.60226C0.440569 11.2094 0.882533 12.7362 1.64593 14.0621L0.400391 18.6826L5.10128 17.4773C6.42718 18.1603 7.87361 18.5621 9.36021 18.5621C14.3022 18.5621 18.4004 14.5442 18.4004 9.64244C18.4004 7.23172 17.3557 5.0219 15.6682 3.3344ZM9.36021 17.0353C8.03432 17.0353 6.74861 16.6737 5.58343 15.9907L5.34236 15.8299L2.52986 16.5933L3.29325 13.8612L3.09236 13.5799C2.36914 12.3746 1.96736 11.0085 1.96736 9.60226C1.96736 5.54422 5.30218 2.2094 9.40039 2.2094C11.3691 2.2094 13.2174 2.9728 14.6236 4.37905C16.0299 5.7853 16.8736 7.63351 16.8736 9.64244C16.8736 13.7005 13.4584 17.0353 9.36021 17.0353ZM13.4584 11.4907C13.2174 11.3701 12.1325 10.8478 11.9316 10.7674C11.7307 10.6871 11.57 10.6469 11.4093 10.888C11.2888 11.0889 10.8468 11.6112 10.7263 11.7719C10.5656 11.8924 10.445 11.9326 10.2441 11.8121C8.91825 11.1692 8.0745 10.6469 7.19057 9.1603C6.9495 8.75851 7.43164 8.79869 7.83343 7.95494C7.91378 7.79422 7.87361 7.67369 7.83343 7.55315C7.79325 7.43262 7.31111 6.3478 7.15039 5.90583C6.9495 5.46387 6.78878 5.50405 6.62807 5.50405C6.50753 5.50405 6.34682 5.50405 6.22628 5.50405C6.06557 5.50405 5.8245 5.54422 5.62361 5.7853C5.42271 6.02637 4.86021 6.54869 4.86021 7.63351C4.86021 8.75851 5.62361 9.80315 5.74414 9.96387C5.86468 10.0844 7.31111 12.3344 9.56111 13.2987C10.9674 13.9415 11.5299 13.9817 12.2531 13.8612C12.6549 13.821 13.5388 13.3389 13.7397 12.8165C13.9406 12.2942 13.9406 11.8523 13.8602 11.7719C13.82 11.6514 13.6593 11.6112 13.4584 11.4907Z" fill="#4BA8E7"/>
</svg>
