<svg width="16" height="17" viewBox="0 0 16 17" fill="none" xmlns="http://www.w3.org/2000/svg">
<path d="M3.64062 16.5054V5.99365H0.371094V16.5054H3.64062ZM1.98828 4.5874C3.04297 4.5874 3.88672 3.7085 3.88672 2.65381C3.88672 1.63428 3.04297 0.790527 1.98828 0.790527C0.96875 0.790527 0.125 1.63428 0.125 2.65381C0.125 3.7085 0.96875 4.5874 1.98828 4.5874ZM15.8398 16.5054H15.875V10.7397C15.875 7.92725 15.2422 5.74756 11.9375 5.74756C10.3555 5.74756 9.30078 6.62646 8.84375 7.43506H8.80859V5.99365H5.67969V16.5054H8.94922V11.3022C8.94922 9.93115 9.19531 8.63037 10.8828 8.63037C12.5703 8.63037 12.6055 10.1772 12.6055 11.4077V16.5054H15.8398Z" fill="white"/>
</svg>
