<svg width="18" height="16" viewBox="0 0 18 16" fill="none" xmlns="http://www.w3.org/2000/svg">
<path d="M16.1367 4.09912C16.8398 3.57178 17.4727 2.93896 17.9648 2.20068C17.332 2.48193 16.5938 2.69287 15.8555 2.76318C16.6289 2.30615 17.1914 1.60303 17.4727 0.724121C16.7695 1.146 15.9609 1.4624 15.1523 1.63818C14.4492 0.899902 13.5 0.478027 12.4453 0.478027C10.4062 0.478027 8.75391 2.13037 8.75391 4.16943C8.75391 4.45068 8.78906 4.73193 8.85938 5.01318C5.80078 4.8374 3.05859 3.36084 1.23047 1.146C0.914062 1.67334 0.738281 2.30615 0.738281 3.00928C0.738281 4.2749 1.37109 5.3999 2.39062 6.06787C1.79297 6.03271 1.19531 5.89209 0.703125 5.61084V5.646C0.703125 7.43896 1.96875 8.91553 3.65625 9.26709C3.375 9.3374 3.02344 9.40771 2.70703 9.40771C2.46094 9.40771 2.25 9.37256 2.00391 9.3374C2.46094 10.814 3.83203 11.8687 5.44922 11.9038C4.18359 12.8882 2.60156 13.4858 0.878906 13.4858C0.5625 13.4858 0.28125 13.4507 0 13.4155C1.61719 14.4702 3.55078 15.0679 5.66016 15.0679C12.4453 15.0679 16.1367 9.47803 16.1367 4.59131C16.1367 4.41553 16.1367 4.2749 16.1367 4.09912Z" fill="white"/>
</svg>
