<svg width="24" height="30" viewBox="0 0 24 30" fill="none" xmlns="http://www.w3.org/2000/svg">
<path d="M11.9999 0C5.84036 0 0.947266 5.09268 0.947266 11.239C0.947266 15.4537 2.27128 16.7415 9.6397 28.6829C10.7334 30.439 13.2088 30.439 14.3025 28.6829C21.6709 16.7415 23.0525 15.4537 23.0525 11.239C23.0525 5.03415 18.0443 0 11.9999 0ZM11.9999 27.161C4.63148 15.2195 3.71042 14.4585 3.71042 11.239C3.71042 6.61463 7.39463 2.80976 11.9999 2.80976C16.5476 2.80976 20.2894 6.61463 20.2894 11.239C20.2894 14.4585 19.3683 15.1024 11.9999 27.161ZM7.39463 11.239C7.39463 13.8732 9.40944 15.922 11.9999 15.922C14.5328 15.922 16.6052 13.8732 16.6052 11.239C16.6052 8.66341 14.5328 6.5561 11.9999 6.5561C9.40944 6.5561 7.39463 8.66341 7.39463 11.239Z" fill="white"/>
</svg>
