<svg width="18" height="19" viewBox="0 0 18 19" fill="none" xmlns="http://www.w3.org/2000/svg">
<path d="M17.0357 11.4505C17.1562 10.888 17.2366 10.2853 17.2366 9.68262C17.2366 5.14244 13.5402 1.44601 9 1.44601C8.39732 1.44601 7.79464 1.52637 7.23214 1.6469C6.46875 1.04422 5.50446 0.682617 4.5 0.682617C2.00893 0.682617 0 2.73172 0 5.18262C0 6.22726 0.321429 7.19155 0.924107 7.95494C0.803571 8.51744 0.723214 9.12012 0.723214 9.68262C0.723214 14.263 4.41964 17.9594 8.95982 17.9594C9.5625 17.9594 10.1652 17.879 10.7277 17.7585C11.4911 18.3612 12.4554 18.6826 13.4598 18.6826C15.9509 18.6826 17.9598 16.6737 17.9598 14.1826C18 13.1782 17.6384 12.2139 17.0357 11.4505ZM9.24107 15.1469C6.58929 15.1469 4.37946 13.9817 4.37946 12.5353C4.37946 11.8924 4.74107 11.2898 5.58482 11.2898C6.83036 11.2898 6.95089 13.0978 9.12054 13.0978C10.125 13.0978 10.808 12.6558 10.808 12.0532C10.808 11.2898 10.1652 11.1692 9.12054 10.9282C6.62946 10.2853 4.37946 10.0442 4.37946 7.43262C4.37946 5.0219 6.75 4.13797 8.75893 4.13797C10.9688 4.13797 13.2188 5.0219 13.2188 6.38797C13.2188 7.07101 12.7768 7.67369 12.0134 7.67369C10.8884 7.67369 10.8482 6.30762 9 6.30762C7.95536 6.30762 7.3125 6.58887 7.3125 7.23172C7.3125 7.99512 8.15625 8.07547 10.0848 8.55762C11.7321 8.91922 13.7411 9.60226 13.7411 11.6514C13.7411 14.0219 11.4509 15.1469 9.24107 15.1469Z" fill="#4BA8E7"/>
</svg>
