<svg width="15" height="27" viewBox="0 0 15 27" fill="none" xmlns="http://www.w3.org/2000/svg">
<path d="M1.05469 0.52832L0.644531 0.938477C0.351562 1.23145 0.351562 1.6416 0.644531 1.93457L12.0703 13.4189L0.644531 24.8447C0.351562 25.1377 0.351562 25.5479 0.644531 25.8408L1.05469 26.251C1.34766 26.5439 1.75781 26.5439 2.05078 26.251L14.4141 13.8877C14.707 13.5947 14.707 13.1846 14.4141 12.8916L2.05078 0.52832C1.75781 0.235352 1.34766 0.235352 1.05469 0.52832Z" fill="url(#paint0_linear_60_354)"/>
<path d="M0.644531 1.93457L1.35345 1.22927L1.35164 1.22746L0.644531 1.93457ZM12.0703 13.4189L12.7774 14.1261L13.4827 13.4208L12.7792 12.7136L12.0703 13.4189ZM0.347581 -0.178787L-0.0625753 0.231369L1.35164 1.64558L1.76179 1.23543L0.347581 -0.178787ZM-0.0625753 0.231369C-0.378438 0.547232 -0.575195 0.970903 -0.575195 1.43652C-0.575195 1.90214 -0.378438 2.32582 -0.0625753 2.64168L1.35164 1.22746C1.37453 1.25036 1.4248 1.32247 1.4248 1.43652C1.4248 1.55058 1.37453 1.62269 1.35164 1.64558L-0.0625753 0.231369ZM-0.0643816 2.63987L11.3614 14.1242L12.7792 12.7136L1.35344 1.22927L-0.0643816 2.63987ZM11.3632 12.7118L-0.0625753 24.1376L1.35164 25.5518L12.7774 14.1261L11.3632 12.7118ZM-0.0625753 24.1376C-0.378438 24.4535 -0.575195 24.8772 -0.575195 25.3428C-0.575195 25.8084 -0.378438 26.2321 -0.0625753 26.5479L1.35164 25.1337C1.37453 25.1566 1.4248 25.2287 1.4248 25.3428C1.4248 25.4568 1.37453 25.5289 1.35164 25.5518L-0.0625753 24.1376ZM-0.0625753 26.5479L0.347581 26.9581L1.76179 25.5439L1.35164 25.1337L-0.0625753 26.5479ZM0.347581 26.9581C0.663443 27.2739 1.08711 27.4707 1.55273 27.4707C2.01835 27.4707 2.44203 27.2739 2.75789 26.9581L1.34367 25.5439C1.36657 25.521 1.43868 25.4707 1.55273 25.4707C1.66679 25.4707 1.7389 25.521 1.76179 25.5439L0.347581 26.9581ZM2.75789 26.9581L15.1212 14.5948L13.707 13.1806L1.34367 25.5439L2.75789 26.9581ZM15.1212 14.5948C15.437 14.2789 15.6338 13.8553 15.6338 13.3896C15.6338 12.924 15.437 12.5004 15.1212 12.1845L13.707 13.5987C13.6841 13.5758 13.6338 13.5037 13.6338 13.3896C13.6338 13.2756 13.6841 13.2035 13.707 13.1806L15.1212 14.5948ZM15.1212 12.1845L2.75789 -0.178787L1.34367 1.23543L13.707 13.5987L15.1212 12.1845ZM2.75789 -0.178787C2.44203 -0.494648 2.01835 -0.691406 1.55273 -0.691406C1.08711 -0.691406 0.663443 -0.494648 0.347581 -0.178787L1.76179 1.23543C1.7389 1.25832 1.66679 1.30859 1.55273 1.30859C1.43868 1.30859 1.36657 1.25832 1.34367 1.23543L2.75789 -0.178787Z" fill="url(#paint1_linear_60_354)"/>
<defs>
<linearGradient id="paint0_linear_60_354" x1="15" y1="-1.09079" x2="0.0455854" y2="-0.265141" gradientUnits="userSpaceOnUse">
<stop stop-color="#D8404C"/>
<stop offset="1" stop-color="#45ABF3"/>
</linearGradient>
<linearGradient id="paint1_linear_60_354" x1="15" y1="-1.09079" x2="0.0455854" y2="-0.265141" gradientUnits="userSpaceOnUse">
<stop stop-color="#D8404C"/>
<stop offset="1" stop-color="#45ABF3"/>
</linearGradient>
</defs>
</svg>
