<svg width="19" height="19" viewBox="0 0 19 19" fill="none" xmlns="http://www.w3.org/2000/svg">
<path d="M9.68164 0.682617C4.86523 0.682617 0.962891 4.58496 0.962891 9.40137C0.962891 14.2178 4.86523 18.1201 9.68164 18.1201C14.498 18.1201 18.4004 14.2178 18.4004 9.40137C18.4004 4.58496 14.498 0.682617 9.68164 0.682617ZM13.9355 6.65918L12.5293 13.4092C12.4238 13.9014 12.1426 14.0068 11.7207 13.7959L9.54102 12.1787L8.48633 13.1982C8.38086 13.3037 8.27539 13.4092 8.06445 13.4092L8.20508 11.1943L12.248 7.53809C12.4238 7.39746 12.2129 7.29199 11.9668 7.43262L6.97461 10.5967L4.83008 9.92871C4.37305 9.78809 4.37305 9.43652 4.93555 9.22559L13.3379 5.99121C13.7246 5.85059 14.0762 6.09668 13.9355 6.65918Z" fill="#4BA8E7"/>
</svg>
